<?xml version="1.0" encoding="utf-8"?>
<!-- Generator: Adobe Illustrator 16.0.0, SVG Export Plug-In . SVG Version: 6.00 Build 0)  -->
<!DOCTYPE svg PUBLIC "-//W3C//DTD SVG 1.1//EN" "http://www.w3.org/Graphics/SVG/1.1/DTD/svg11.dtd">
<svg version="1.1" id="Layer_1" xmlns="http://www.w3.org/2000/svg" xmlns:xlink="http://www.w3.org/1999/xlink" x="0px" y="0px"
	 width="40px" height="40px" viewBox="0 0 40 40" enable-background="new 0 0 40 40" xml:space="preserve">
<path fill="#744587" d="M32.499,29.432L22.723,9.877c1.146-0.84,1.893-2.196,1.893-3.724c0-2.545-2.07-4.615-4.615-4.615
	s-4.615,2.07-4.615,4.615c0,1.528,0.747,2.884,1.893,3.724L7.501,29.432c-2.966-0.907-5.962,1.326-5.962,4.414
	c0,2.545,2.07,4.615,4.615,4.615c2.283,0,4.183-1.666,4.55-3.846h18.593c0.367,2.18,2.267,3.846,4.549,3.846
	c2.545,0,4.616-2.07,4.616-4.615C38.462,30.757,35.464,28.525,32.499,29.432z M20,3.077c1.697,0,3.077,1.38,3.077,3.077
	c0,1.697-1.38,3.077-3.077,3.077c-1.696,0-3.077-1.38-3.077-3.077C16.923,4.457,18.304,3.077,20,3.077z M18.653,10.568
	c0.878,0.268,1.816,0.268,2.695,0l9.776,19.553c-0.95,0.697-1.624,1.747-1.827,2.955H10.704c-0.204-1.208-0.878-2.258-1.828-2.955
	L18.653,10.568z M6.154,36.923c-1.696,0-3.077-1.38-3.077-3.077c0-1.696,1.38-3.076,3.077-3.076c1.697,0,3.077,1.38,3.077,3.076
	C9.231,35.543,7.851,36.923,6.154,36.923z M33.846,36.923c-1.695,0-3.076-1.38-3.076-3.077c0-1.696,1.381-3.076,3.076-3.076
	c1.697,0,3.078,1.38,3.078,3.076C36.924,35.543,35.543,36.923,33.846,36.923z M5.385,5.384h1.539v1.539H5.385V5.384z M5.385,8.461
	h1.539V10H5.385V8.461z M5.385,11.538h1.539v1.539H5.385V11.538z M5.385,14.615h1.539v1.538H5.385V14.615z M5.385,17.692h1.539
	v1.539H5.385V17.692z M33.077,10h1.538v1.539h-1.538V10z M33.077,13.077h1.538v1.539h-1.538V13.077z M33.077,16.153h1.538v1.539
	h-1.538V16.153z M33.077,19.23h1.538v1.539h-1.538V19.23z"/>
<path fill="#744587" d="M33.077,22.308h1.538v1.538h-1.538V22.308z M13.846,26.923c0.29,0,0.567-0.164,0.698-0.444l5.385-11.538
	c0.18-0.385,0.013-0.843-0.372-1.022c-0.385-0.18-0.843-0.013-1.022,0.372l-5.384,11.538C12.91,26.342,13.29,26.923,13.846,26.923z"
	/>
</svg>
