<?xml version="1.0" encoding="utf-8"?>
<!-- Generator: Adobe Illustrator 16.0.0, SVG Export Plug-In . SVG Version: 6.00 Build 0)  -->
<!DOCTYPE svg PUBLIC "-//W3C//DTD SVG 1.1//EN" "http://www.w3.org/Graphics/SVG/1.1/DTD/svg11.dtd">
<svg version="1.1" id="Layer_1" xmlns="http://www.w3.org/2000/svg" xmlns:xlink="http://www.w3.org/1999/xlink" x="0px" y="0px"
	 width="40px" height="40px" viewBox="0 0 40 40" enable-background="new 0 0 40 40" xml:space="preserve">
<g>
	<defs>
		<rect id="SVGID_1_" width="40" height="40"/>
	</defs>
	<clipPath id="SVGID_2_">
		<use xlink:href="#SVGID_1_"  overflow="visible"/>
	</clipPath>
	<g clip-path="url(#SVGID_2_)">
		<path fill="#744587" d="M37.77,16.588l-2.896-0.448c-0.358-1.382-0.903-2.697-1.625-3.928l1.733-2.37
			c0.546-0.746,0.467-1.77-0.188-2.424l-2.212-2.206c-0.314-0.316-0.732-0.509-1.178-0.544c-0.445-0.034-0.887,0.092-1.247,0.356
			l-2.37,1.733c-1.224-0.722-2.545-1.267-3.927-1.625L23.412,2.23c-0.066-0.442-0.291-0.845-0.63-1.135
			c-0.34-0.291-0.772-0.449-1.219-0.447h-3.121c-0.927,0-1.703,0.667-1.849,1.582l-0.449,2.897
			c-1.382,0.357-2.703,0.903-3.927,1.624l-2.37-1.733C9.103,4.473,8.084,4.552,7.424,5.206L5.212,7.418
			C4.896,7.733,4.703,8.15,4.668,8.595S4.76,9.483,5.024,9.842l1.733,2.37c-0.721,1.225-1.267,2.546-1.624,3.928l-2.897,0.448
			c-0.442,0.067-0.845,0.291-1.135,0.63c-0.29,0.339-0.449,0.772-0.447,1.219v3.121c0,0.927,0.667,1.703,1.582,1.849l2.897,0.448
			c0.357,1.382,0.903,2.703,1.624,3.927l-1.733,2.37c-0.545,0.745-0.467,1.771,0.188,2.425l2.212,2.212
			c0.315,0.316,0.732,0.509,1.177,0.544c0.445,0.034,0.888-0.092,1.247-0.356l2.37-1.733c1.23,0.722,2.545,1.268,3.927,1.625
			l0.449,2.902c0.067,0.441,0.291,0.845,0.63,1.135c0.339,0.291,0.772,0.449,1.219,0.447h3.121c0.927,0,1.703-0.667,1.849-1.582
			l0.448-2.896c1.382-0.357,2.696-0.903,3.927-1.625l2.37,1.734c0.745,0.545,1.77,0.466,2.425-0.188l2.212-2.212
			c0.316-0.314,0.509-0.732,0.544-1.178c0.034-0.444-0.092-0.887-0.356-1.246l-1.733-2.37c0.722-1.23,1.267-2.546,1.625-3.928
			l2.896-0.448c0.441-0.066,0.844-0.291,1.135-0.63s0.449-0.772,0.447-1.219v-3.121C39.352,17.509,38.685,16.733,37.77,16.588z
			 M38.32,21.563c0,0.419-0.297,0.764-0.709,0.831l-3.236,0.502c-0.205,0.031-0.375,0.188-0.424,0.389
			c-0.357,1.509-0.945,2.939-1.764,4.254c-0.109,0.176-0.104,0.406,0.024,0.576l1.933,2.643c0.249,0.339,0.213,0.794-0.084,1.091
			l-2.206,2.212c-0.297,0.297-0.751,0.327-1.085,0.085l-2.648-1.934c-0.083-0.06-0.182-0.094-0.284-0.099
			c-0.103-0.004-0.204,0.021-0.292,0.074c-1.314,0.813-2.75,1.408-4.254,1.764c-0.207,0.049-0.357,0.213-0.389,0.425L22.4,37.612
			c-0.067,0.412-0.412,0.709-0.831,0.709h-3.121c-0.418,0-0.764-0.297-0.83-0.709l-0.503-3.243c-0.016-0.101-0.061-0.195-0.13-0.271
			c-0.069-0.075-0.159-0.129-0.258-0.153c-1.509-0.357-2.939-0.945-4.254-1.764c-0.082-0.053-0.176-0.08-0.273-0.078
			c-0.108,0.001-0.214,0.035-0.303,0.097l-2.642,1.933c-0.339,0.243-0.794,0.213-1.091-0.084l-2.225-2.2
			c-0.144-0.14-0.231-0.327-0.247-0.526s0.042-0.398,0.162-0.559l1.933-2.648c0.121-0.17,0.133-0.4,0.024-0.576
			C7,26.225,6.404,24.789,6.048,23.285c-0.023-0.101-0.076-0.191-0.151-0.261s-0.171-0.114-0.273-0.128l-3.236-0.502
			c-0.412-0.067-0.709-0.412-0.709-0.831v-3.121c0-0.418,0.297-0.764,0.709-0.83l3.236-0.503C5.83,17.079,6,16.921,6.048,16.721
			c0.357-1.509,0.945-2.945,1.764-4.254c0.109-0.176,0.103-0.406-0.024-0.576L5.854,9.249C5.606,8.915,5.642,8.455,5.939,8.158
			l2.212-2.212C8.448,5.648,8.903,5.618,9.236,5.86l2.648,1.934c0.169,0.121,0.4,0.133,0.576,0.024
			c1.315-0.813,2.745-1.406,4.254-1.764c0.206-0.049,0.357-0.212,0.388-0.424l0.503-3.236c0.066-0.412,0.412-0.709,0.83-0.709h3.122
			c0.418,0,0.763,0.297,0.83,0.709l0.503,3.242c0.03,0.206,0.188,0.376,0.389,0.424c1.508,0.357,2.945,0.945,4.254,1.764
			c0.176,0.109,0.406,0.103,0.576-0.024l2.643-1.933c0.332-0.249,0.793-0.212,1.09,0.085l2.213,2.212
			c0.297,0.297,0.333,0.751,0.084,1.085l-1.934,2.648c-0.121,0.169-0.133,0.4-0.023,0.576c0.813,1.315,1.406,2.746,1.764,4.254
			c0.049,0.206,0.212,0.358,0.424,0.388l3.236,0.503c0.412,0.066,0.709,0.412,0.709,0.83v3.115H38.32z"/>
		<path fill="#744587" d="M20,9.546C14.236,9.546,9.545,14.237,9.545,20c0,5.763,4.691,10.455,10.455,10.455
			S30.455,25.764,30.455,20C30.455,14.237,25.764,9.546,20,9.546z M20,29.425c-5.2,0-9.424-4.23-9.424-9.424S14.8,10.576,20,10.576
			S29.424,14.8,29.424,20C29.424,25.2,25.2,29.425,20,29.425z"/>
		<path fill="#744587" d="M23.637,13.212h-6.8c-1.333,0-2.418,1.085-2.418,2.418v6.794c0,1.073,0.873,1.939,1.939,1.939h1.618
			c-0.024,0.121-0.037,0.248-0.037,0.376c0,0.618,0.279,1.2,0.758,1.594c0.238,0.193,0.516,0.331,0.813,0.403
			s0.608,0.077,0.908,0.016c0.836-0.17,1.497-0.885,1.605-1.729c0.031-0.224,0.025-0.441-0.018-0.654h1.631
			c1.072,0,1.939-0.872,1.939-1.939v-2.388c0-0.194-0.109-0.37-0.279-0.46c-0.084-0.042-0.179-0.061-0.273-0.054
			c-0.094,0.007-0.184,0.041-0.26,0.096c-0.213,0.151-0.461,0.212-0.733,0.176c-0.412-0.055-0.771-0.382-0.854-0.788
			c-0.061-0.315,0.012-0.618,0.206-0.86c0.327-0.4,0.951-0.485,1.382-0.188c0.157,0.109,0.363,0.121,0.533,0.037
			c0.083-0.044,0.152-0.109,0.201-0.189c0.05-0.08,0.076-0.172,0.078-0.266v-2.394C25.576,14.079,24.709,13.212,23.637,13.212z
			 M24.545,16.775c-0.721-0.133-1.49,0.146-1.963,0.722c-0.193,0.237-0.332,0.515-0.404,0.813s-0.077,0.608-0.014,0.908
			c0.169,0.836,0.885,1.497,1.732,1.606c0.219,0.03,0.437,0.018,0.648-0.019v1.618c0,0.504-0.406,0.909-0.908,0.909h-2.389
			c-0.193,0-0.369,0.109-0.461,0.278c-0.09,0.17-0.072,0.383,0.043,0.533c0.151,0.213,0.212,0.467,0.176,0.74
			c-0.055,0.406-0.388,0.764-0.794,0.848c-0.309,0.067-0.618-0.006-0.861-0.205c-0.242-0.194-0.375-0.485-0.375-0.795
			c0-0.211,0.066-0.418,0.188-0.588c0.115-0.156,0.127-0.363,0.042-0.533c-0.044-0.083-0.11-0.153-0.191-0.203
			c-0.081-0.049-0.174-0.074-0.269-0.075h-2.382c-0.503,0-0.909-0.405-0.909-0.909v-6.8c0-0.764,0.625-1.388,1.388-1.388h6.794
			c0.502,0,0.908,0.406,0.908,0.909V16.775z"/>
	</g>
</g>
</svg>
