<?xml version="1.0" encoding="utf-8"?>
<!-- Generator: Adobe Illustrator 16.0.0, SVG Export Plug-In . SVG Version: 6.00 Build 0)  -->
<!DOCTYPE svg PUBLIC "-//W3C//DTD SVG 1.1//EN" "http://www.w3.org/Graphics/SVG/1.1/DTD/svg11.dtd">
<svg version="1.1" xmlns="http://www.w3.org/2000/svg" xmlns:xlink="http://www.w3.org/1999/xlink" x="0px" y="0px"
	 width="372.333px" height="372.408px" viewBox="0 0 372.333 372.408" enable-background="new 0 0 372.333 372.408"
	 xml:space="preserve">
<g id="Layer_2">
	
		<circle fill-rule="evenodd" clip-rule="evenodd" fill="none" stroke="#744587" stroke-width="10" stroke-miterlimit="10" cx="186.151" cy="186.256" r="180.787"/>
</g>
<g id="Layer_1">
	<g>
		<path fill-rule="evenodd" clip-rule="evenodd" fill="#744587" d="M117.282,227.621c-10.197-7.794-15.976-18.115-18.396-30.377
			c-0.688-3.487-1.13-7.091-1.099-10.636c0.072-8.336,0.41-16.673,0.816-25.002c0.244-5.017,3.259-8.511,7.155-11.252
			c5.636-3.966,12.091-5.864,18.8-6.981c12.007-1.998,23.932-1.691,35.531,2.185c3.776,1.262,7.426,3.237,10.735,5.475
			c4.396,2.972,6.53,7.413,6.436,12.85c-0.161,9.288,0.218,18.611-0.467,27.857c-1.066,14.39-6.958,26.579-18.477,35.709
			c-0.18,0.143-0.315,0.341-0.505,0.551c0.063,0.219,0.125,0.436,0.188,0.652c1.208,4.142,3.907,5.385,8.161,5.007
			c4.728-0.42,9.526-0.18,14.288-0.047c11.966,0.333,21.847,9.906,22.118,21.897c0.294,13.02,0.126,26.051,0.105,39.078
			c-0.004,2.753-1.204,3.911-3.942,3.949c-4.289,0.058-8.579,0.022-12.868,0.022c-36.142,0.001-72.284,0.001-108.426,0
			c-4.795,0-5.558-0.751-5.559-5.467c-0.002-11.835-0.019-23.67,0.004-35.506c0.028-14.694,9.806-24.411,24.547-24.429
			c5.084-0.006,10.172-0.121,15.25,0.057c2.064,0.073,3.256-0.541,3.972-2.431C116.038,229.75,116.658,228.809,117.282,227.621z
			 M79.299,291.026c38.859,0,77.401,0,116.065,0c0-11.242,0.021-22.275-0.006-33.309c-0.025-10.165-6.685-16.795-16.902-16.856
			c-5.083-0.03-10.168,0.097-15.246-0.054c-2.13-0.063-3.41,0.526-4.534,2.442c-4.979,8.483-10.127,16.866-15.235,25.273
			c-1.111,1.828-2.188,3.699-3.498,5.381c-1.513,1.942-3.945,1.848-5.495-0.06c-0.597-0.735-1.089-1.561-1.582-2.375
			c-5.834-9.636-11.678-19.267-17.461-28.934c-0.737-1.231-1.546-1.739-3.013-1.714c-5.319,0.091-10.64,0.022-15.96,0.038
			c-10.653,0.034-17.219,6.601-17.236,17.256c-0.016,10.164-0.005,20.328,0.001,30.493
			C79.197,289.382,79.261,290.157,79.299,291.026z M119.991,175.017c-0.148,0.176-0.329,0.328-0.428,0.521
			c-2.972,5.838-7.021,10.533-13.343,12.958c-0.5,0.191-0.951,1.382-0.88,2.051c1.135,10.726,4.772,20.391,12.648,28.043
			c11.523,11.196,27.354,11.037,38.691-0.372c7.667-7.716,11.302-17.288,12.237-27.97c0.053-0.605-0.744-1.628-1.38-1.896
			c-5.511-2.325-9.539-6.179-12.277-11.449c-0.345-0.665-0.719-1.313-1.041-1.898C142.672,181.338,131.351,181.313,119.991,175.017z
			 M169.476,181.399c0-5.993-0.195-11.391,0.059-16.768c0.225-4.773-1.938-7.867-5.9-9.979c-1.531-0.816-3.142-1.535-4.792-2.068
			c-10.805-3.491-21.851-3.617-32.968-2.089c-5.369,0.738-10.583,2.099-15.222,5.091c-3.235,2.086-4.952,4.913-4.883,8.919
			c0.085,4.918-0.16,9.843-0.248,14.765c-0.012,0.668,0.057,1.338,0.089,2.015c0.363-0.03,0.529-0.008,0.664-0.063
			c0.218-0.088,0.428-0.208,0.621-0.344c4.73-3.332,7.223-7.899,7.453-13.671c0.084-2.095,0.924-3.545,3.085-3.869
			c2.117-0.317,3.316,0.739,4.188,2.677c0.58,1.288,1.59,2.577,2.745,3.378c6.748,4.683,19.072,4.617,25.768-0.094
			c1.055-0.742,2.113-1.799,2.608-2.952c1.153-2.687,2.14-3.651,4.358-3.351c2.526,0.341,2.966,2.118,3.132,4.3
			C160.701,173.433,163.792,177.939,169.476,181.399z M137.287,264.183c5.553-9.125,10.869-17.841,16.142-26.583
			c0.23-0.381,0.248-1.084,0.055-1.491c-0.771-1.624-1.666-3.188-2.521-4.79c-9.237,3.988-18.249,3.945-27.347,0.021
			c-0.879,1.622-1.769,3.118-2.493,4.69c-0.215,0.466-0.163,1.266,0.105,1.71C126.46,246.423,131.743,255.077,137.287,264.183z"/>
		<path fill-rule="evenodd" clip-rule="evenodd" fill="#744587" d="M308.464,114.45c-0.259,14.708-7.126,26.087-18.15,35.185
			c-12.256,10.115-26.639,15.125-42.292,16.792c-2.523,0.269-5.079,0.247-7.599,0.534c-1.056,0.12-2.127,0.569-3.079,1.079
			c-11.538,6.182-23.056,12.403-34.58,18.613c-0.558,0.3-1.108,0.622-1.688,0.878c-3.035,1.341-5.466-0.038-5.729-3.328
			c-0.649-8.153-1.38-16.303-1.789-24.469c-0.167-3.31-1.07-5.53-3.969-7.6c-10.074-7.189-17.23-16.651-19.883-28.956
			c-3.186-14.776,1.358-27.477,11.348-38.348c10.65-11.591,24.226-18.031,39.45-21.039c19.494-3.85,38.421-1.983,56.39,6.846
			c12.223,6.006,22.097,14.571,27.952,27.177C307.295,103.085,308.434,108.619,308.464,114.45z M202.735,178.309
			c0.97-0.473,1.615-0.757,2.231-1.092c10.108-5.493,20.197-11.024,30.34-16.452c1.272-0.681,2.811-1.003,4.264-1.182
			c5.35-0.653,10.798-0.769,16.061-1.828c14.021-2.824,26.522-8.723,36.106-19.718c12.425-14.255,12.426-32.701,0.153-47.051
			c-4.285-5.01-9.357-9.068-15.139-12.175c-17.987-9.666-37.036-11.707-56.811-7.348c-13.318,2.936-25.122,8.816-34.332,19.19
			c-12.01,13.528-12.629,31.466-1.612,45.814c3.671,4.78,8.121,8.72,13.272,11.811c2.273,1.364,3.276,3.068,3.45,5.748
			C201.236,162.015,202.024,169.987,202.735,178.309z"/>
		<path fill-rule="evenodd" clip-rule="evenodd" fill="#744587" d="M234.978,124.704c0.33-5.67,2.757-11.317,8.083-15.533
			c3.092-2.448,4.418-5.524,3.403-9.429c-1.045-4.025-4.525-6.468-8.733-6.184c-4.067,0.274-7.195,3.341-7.542,7.533
			c-0.161,1.934-0.509,3.676-2.658,4.288c-2.472,0.703-4.475-0.999-4.462-3.721c0.039-8.116,6.194-14.727,14.464-15.534
			c7.55-0.737,14.905,4.837,16.483,12.531c1.235,6.024-0.277,11.316-5.053,15.19c-4.178,3.389-6.396,7.491-6.732,12.799
			c-0.183,2.875-2.369,4.311-4.929,3.488C235.611,129.587,234.911,128.263,234.978,124.704z"/>
		<path fill-rule="evenodd" clip-rule="evenodd" fill="#744587" d="M242.216,139.272c-0.027,1.971-1.691,3.64-3.626,3.635
			c-1.907-0.004-3.616-1.717-3.639-3.646c-0.024-1.96,1.631-3.727,3.507-3.745C240.517,135.497,242.245,137.224,242.216,139.272z"/>
	</g>
</g>
</svg>
