<?xml version="1.0" encoding="utf-8"?>
<!-- Generator: Adobe Illustrator 16.0.0, SVG Export Plug-In . SVG Version: 6.00 Build 0)  -->
<!DOCTYPE svg PUBLIC "-//W3C//DTD SVG 1.1//EN" "http://www.w3.org/Graphics/SVG/1.1/DTD/svg11.dtd">
<svg version="1.1" id="Layer_1" xmlns="http://www.w3.org/2000/svg" xmlns:xlink="http://www.w3.org/1999/xlink" x="0px" y="0px"
	 width="372.333px" height="372.408px" viewBox="0 0 372.333 372.408" enable-background="new 0 0 372.333 372.408"
	 xml:space="preserve">
<g>
	<path fill-rule="evenodd" clip-rule="evenodd" fill="#744587" d="M71.466,260.81c-16.047-12.266-25.141-28.509-28.949-47.805
		c-1.082-5.487-1.779-11.159-1.73-16.738c0.114-13.118,0.645-26.239,1.284-39.346c0.385-7.895,5.129-13.394,11.261-17.708
		c8.87-6.241,19.028-9.229,29.586-10.986c18.896-3.144,37.662-2.66,55.915,3.439c5.942,1.986,11.686,5.094,16.895,8.615
		c6.917,4.676,10.277,11.666,10.128,20.223c-0.254,14.616,0.343,29.288-0.735,43.839c-1.677,22.646-10.95,41.828-29.077,56.196
		c-0.283,0.225-0.496,0.537-0.794,0.867c0.099,0.345,0.195,0.686,0.294,1.025c1.901,6.519,6.149,8.475,12.843,7.88
		c7.44-0.661,14.991-0.283,22.485-0.074c18.831,0.524,34.38,15.589,34.807,34.459c0.464,20.49,0.198,40.998,0.166,61.498
		c-0.007,4.332-1.895,6.154-6.203,6.214c-6.749,0.092-13.5,0.034-20.25,0.034c-56.876,0.002-113.754,0.002-170.631-0.001
		c-7.546,0-8.746-1.183-8.748-8.603c-0.004-18.625-0.029-37.251,0.006-55.877c0.044-23.124,15.431-38.415,38.63-38.444
		c8-0.01,16.007-0.19,23.998,0.09c3.248,0.114,5.125-0.851,6.25-3.826C69.51,264.161,70.485,262.678,71.466,260.81z M11.692,360.591
		c61.153,0,121.807,0,182.654,0c0-17.69,0.032-35.055-0.01-52.418c-0.039-15.997-10.52-26.432-26.6-26.527
		c-7.998-0.047-16,0.152-23.991-0.085c-3.353-0.099-5.367,0.827-7.136,3.843c-7.835,13.35-15.937,26.543-23.975,39.772
		c-1.749,2.878-3.443,5.822-5.505,8.469c-2.381,3.057-6.208,2.908-8.648-0.095c-0.939-1.156-1.714-2.456-2.489-3.737
		c-9.181-15.165-18.378-30.32-27.478-45.534c-1.16-1.938-2.434-2.736-4.742-2.697c-8.371,0.143-16.745,0.035-25.117,0.061
		c-16.766,0.053-27.098,10.388-27.125,27.155c-0.025,15.995-0.009,31.99,0.001,47.986C11.533,358.003,11.632,359.223,11.692,360.591
		z M75.729,178.025c-0.232,0.278-0.518,0.517-0.673,0.821c-4.677,9.188-11.05,16.576-20.999,20.392
		c-0.786,0.301-1.496,2.175-1.385,3.228c1.786,16.879,7.509,32.089,19.904,44.133c18.135,17.62,43.047,17.369,60.89-0.586
		c12.066-12.142,17.786-27.206,19.258-44.017c0.083-0.952-1.17-2.562-2.173-2.984c-8.672-3.659-15.011-9.725-19.319-18.018
		c-0.543-1.046-1.133-2.068-1.639-2.988C111.424,187.974,93.608,187.934,75.729,178.025z M153.605,188.069
		c0-9.43-0.308-17.925,0.092-26.387c0.355-7.511-3.048-12.38-9.285-15.705c-2.409-1.284-4.945-2.417-7.541-3.255
		c-17.003-5.494-34.387-5.693-51.882-3.288c-8.449,1.161-16.655,3.304-23.954,8.012c-5.091,3.284-7.793,7.731-7.684,14.037
		c0.134,7.741-0.251,15.49-0.39,23.236c-0.019,1.052,0.09,2.107,0.14,3.171c0.57-0.047,0.832-0.014,1.045-0.1
		c0.343-0.138,0.673-0.328,0.976-0.542c7.444-5.243,11.367-12.431,11.73-21.515c0.132-3.296,1.454-5.58,4.855-6.089
		c3.331-0.499,5.219,1.164,6.592,4.214c0.912,2.026,2.502,4.054,4.32,5.316c10.618,7.37,30.013,7.266,40.551-0.148
		c1.66-1.168,3.326-2.832,4.105-4.646c1.814-4.227,3.367-5.746,6.859-5.273c3.975,0.536,4.667,3.333,4.928,6.768
		C139.796,175.534,144.66,182.625,153.605,188.069z M102.949,318.347c8.738-14.359,17.104-28.077,25.402-41.835
		c0.361-0.6,0.39-1.706,0.086-2.346c-1.214-2.555-2.621-5.018-3.967-7.538c-14.536,6.275-28.718,6.209-43.037,0.032
		c-1.383,2.553-2.783,4.907-3.923,7.381c-0.337,0.733-0.255,1.993,0.165,2.691C85.911,290.399,94.225,304.017,102.949,318.347z"/>
	<path fill-rule="evenodd" clip-rule="evenodd" fill="#744587" d="M372.333,82.71c-0.407,23.147-11.214,41.053-28.563,55.371
		c-19.288,15.918-41.922,23.804-66.556,26.426c-3.971,0.423-7.992,0.389-11.959,0.84c-1.662,0.189-3.348,0.895-4.845,1.697
		c-18.158,9.729-36.283,19.519-54.418,29.292c-0.878,0.474-1.745,0.979-2.656,1.382c-4.776,2.11-8.603-0.06-9.015-5.237
		c-1.021-12.83-2.172-25.656-2.816-38.506c-0.262-5.209-1.684-8.704-6.245-11.96c-15.853-11.314-27.115-26.204-31.29-45.569
		c-5.013-23.252,2.137-43.24,17.858-60.348c16.76-18.241,38.125-28.375,62.083-33.108c30.679-6.06,60.465-3.121,88.741,10.773
		c19.235,9.452,34.774,22.93,43.988,42.768C370.494,64.826,372.285,73.535,372.333,82.71z M205.946,183.206
		c1.526-0.744,2.541-1.191,3.512-1.719c15.907-8.645,31.783-17.349,47.746-25.89c2.002-1.071,4.423-1.579,6.71-1.859
		c8.42-1.029,16.994-1.21,25.275-2.877c22.064-4.444,41.737-13.728,56.82-31.031c19.554-22.434,19.556-51.462,0.241-74.045
		c-6.743-7.885-14.726-14.271-23.824-19.161c-28.307-15.21-58.284-18.422-89.403-11.563c-20.96,4.62-39.534,13.874-54.029,30.199
		c-18.901,21.289-19.874,49.519-2.537,72.099c5.776,7.523,12.78,13.723,20.886,18.586c3.578,2.146,5.156,4.828,5.43,9.045
		C203.587,157.565,204.827,170.111,205.946,183.206z"/>
	<path fill-rule="evenodd" clip-rule="evenodd" fill="#744587" d="M256.686,98.848c0.519-8.923,4.34-17.811,12.72-24.444
		c4.866-3.852,6.952-8.693,5.355-14.838c-1.646-6.335-7.122-10.178-13.744-9.732c-6.4,0.432-11.322,5.258-11.87,11.854
		c-0.253,3.043-0.802,5.786-4.182,6.748c-3.891,1.107-7.043-1.571-7.022-5.856c0.061-12.771,9.748-23.175,22.763-24.446
		c11.882-1.16,23.456,7.612,25.939,19.72c1.944,9.481-0.437,17.809-7.951,23.905c-6.575,5.333-10.065,11.788-10.595,20.142
		c-0.287,4.523-3.729,6.783-7.756,5.489C257.682,106.533,256.582,104.449,256.686,98.848z"/>
	<path fill-rule="evenodd" clip-rule="evenodd" fill="#744587" d="M268.078,121.773c-0.043,3.103-2.662,5.729-5.708,5.722
		c-3-0.007-5.69-2.702-5.727-5.738c-0.037-3.084,2.567-5.865,5.52-5.893C265.404,115.833,268.123,118.55,268.078,121.773z"/>
</g>
</svg>
